# Blender 4.2.1 LTS
# www.blender.org
mtllib road_I_1.mtl
g road_I_1_road_I_1_mesh
v 5.999996 0.000000 -6.000004
v 5.999996 0.199999 -6.000002
v 6.000003 0.000000 5.999996
v 6.000003 0.199999 5.999996
v -6.000004 0.000000 -5.999997
v -6.000004 0.199999 -5.999996
v -5.999997 0.000000 6.000003
v -5.999997 0.199999 6.000003
v -4.903919 0.410548 -5.999996
v -6.000004 0.410548 -5.999996
v -5.999997 0.410548 6.000003
v 6.000003 0.410548 5.999996
v 5.999996 0.410548 -6.000002
v -4.903913 0.000000 6.000002
v -5.250234 0.000000 6.000002
v 5.250232 0.000000 5.999997
v 4.903911 0.000000 5.999997
v 4.903911 0.199999 5.999997
v 5.250232 0.199999 5.999997
v -5.250234 0.199999 6.000002
v -4.903913 0.199999 6.000002
v 4.903904 0.000000 -6.000003
v 5.250225 0.000000 -6.000003
v -5.250240 0.000000 -5.999998
v -4.903919 0.000000 -5.999998
v -4.903919 0.199999 -5.999996
v -5.250240 0.199999 -5.999996
v 5.250225 0.199999 -6.000002
v 4.903904 0.199999 -6.000002
v 5.250225 0.410548 -6.000002
v 4.903904 0.410548 -6.000002
v 4.903911 0.410548 5.999997
v -5.250240 0.410548 -5.999996
v 5.250232 0.410548 5.999997
v -5.250234 0.410548 6.000002
v -4.903913 0.410548 6.000002
v 4.903904 0.475348 -6.000003
v 4.903911 0.475348 5.999997
v -4.903919 0.475348 -5.999998
v -5.250240 0.475348 -5.999998
v 5.250232 0.475348 5.999997
v 5.250225 0.475348 -6.000003
v -5.250234 0.475348 6.000002
v -4.903913 0.475348 6.000002
v -4.690331 0.199999 6.000002
v 4.690329 0.199999 5.999997
v -4.690331 0.000000 6.000002
v 4.690329 0.000000 5.999997
v 4.690322 0.199999 -6.000002
v -4.690337 0.199999 -5.999996
v -4.690337 0.000000 -5.999998
v 4.690322 0.000000 -6.000003
v 4.398011 0.000000 -6.000003
v -4.398026 0.000000 -5.999998
v -4.398019 0.000000 6.000002
v 4.398017 0.000000 5.999997
v -4.398019 0.199999 6.000002
v 4.398017 0.199999 5.999997
v -4.398026 0.199999 -5.999997
v 4.398010 0.199999 -6.000001
v -4.690337 0.247761 -5.999996
v -4.690331 0.247761 6.000002
v 4.690329 0.247761 5.999997
v 4.690322 0.247761 -6.000002
v 4.398017 0.247761 5.999997
v 4.398010 0.247761 -6.000001
v -4.398026 0.247761 -5.999997
v -4.398019 0.247761 6.000002
v 0.078661 0.113527 -5.352234
v 0.078661 0.247794 -5.352234
v 0.078662 0.113527 -3.352234
v 0.078662 0.247794 -3.352234
v -0.147049 0.113527 -5.352234
v -0.147049 0.247794 -5.352234
v -0.147048 0.113527 -3.352234
v -0.147048 0.247794 -3.352234
v 0.078662 0.113527 -2.352234
v 0.078662 0.247794 -2.352234
v 0.078663 0.113527 -0.352234
v 0.078663 0.247794 -0.352234
v -0.147048 0.113527 -2.352234
v -0.147048 0.247794 -2.352234
v -0.147046 0.113527 -0.352234
v -0.147046 0.247794 -0.352234
v 0.078664 0.113527 0.647766
v 0.078664 0.247794 0.647766
v 0.078665 0.113527 2.647766
v 0.078665 0.247794 2.647766
v -0.147046 0.113527 0.647766
v -0.147046 0.247794 0.647766
v -0.147045 0.113527 2.647766
v -0.147045 0.247794 2.647766
v 0.078666 0.113527 3.647765
v 0.078666 0.247794 3.647765
v 0.078667 0.113527 5.647765
v 0.078667 0.247794 5.647765
v -0.147044 0.113527 3.647765
v -0.147044 0.247794 3.647765
v -0.147043 0.113527 5.647765
v -0.147043 0.247794 5.647765
vn 1.0000 -0.0000 -0.0000
vn -0.0000 -0.0000 1.0000
vn -1.0000 -0.0000 -0.0000
vn -0.0000 -0.0000 -1.0000
vn -0.0000 1.0000 -0.0000
vn -0.0000 -1.0000 -0.0000
vt 0.602208 0.375423
vt 0.601672 0.375423
vt 0.601672 0.361847
vt 0.602208 0.361847
vt 0.595970 0.373288
vt 0.595502 0.373288
vt 0.595502 0.373151
vt 0.595970 0.373151
vt 0.592784 0.372481
vt 0.592300 0.372481
vt 0.592300 0.360225
vt 0.592784 0.360225
vt 0.603179 0.362608
vt 0.602755 0.362608
vt 0.602755 0.361937
vt 0.603179 0.361937
vt 0.602309 0.362608
vt 0.602309 0.361937
vt 0.602755 0.371688
vt 0.602755 0.371997
vt 0.602309 0.371997
vt 0.602309 0.371688
vt 0.595970 0.371225
vt 0.595502 0.371225
vt 0.595502 0.371088
vt 0.595970 0.371088
vt 0.612960 0.306960
vt 0.610803 0.306960
vt 0.610803 0.292400
vt 0.612960 0.292400
vt 0.603179 0.372668
vt 0.602755 0.372668
vt 0.603179 0.371997
vt 0.607770 0.360187
vt 0.607770 0.361219
vt 0.568641 0.361219
vt 0.568641 0.360187
vt 0.595009 0.371225
vt 0.595009 0.371088
vt 0.601107 0.375423
vt 0.601107 0.361847
vt 0.607770 0.361695
vt 0.568641 0.361695
vt 0.607275 0.368762
vt 0.568146 0.368762
vt 0.568146 0.368286
vt 0.607275 0.368286
vt 0.603179 0.371688
vt 0.603179 0.362917
vt 0.602755 0.362917
vt 0.595502 0.373087
vt 0.595970 0.373087
vt 0.595970 0.371289
vt 0.595502 0.371289
vt 0.607275 0.369793
vt 0.568146 0.369793
vt 0.611057 0.300197
vt 0.609968 0.300197
vt 0.609968 0.292844
vt 0.611057 0.292844
vt 0.602309 0.362917
vt 0.595009 0.371289
vt 0.587175 0.360323
vt 0.587175 0.374385
vt 0.586589 0.374385
vt 0.586590 0.360323
vt 0.595009 0.373288
vt 0.595009 0.373151
vt 0.591790 0.372481
vt 0.591790 0.360225
vt 0.595009 0.373087
vt 0.602309 0.372668
vt 0.596459 0.360762
vt 0.596459 0.375366
vt 0.595851 0.375366
vt 0.595851 0.360762
vt 0.590131 0.360886
vt 0.590131 0.373142
vt 0.589974 0.373142
vt 0.589974 0.360886
vt 0.594857 0.371289
vt 0.594857 0.371225
vt 0.572173 0.360032
vt 0.573206 0.360032
vt 0.573206 0.375122
vt 0.572173 0.375122
vt 0.574238 0.360032
vt 0.574238 0.375122
vt 0.586409 0.374385
vt 0.586409 0.360323
vt 0.591463 0.363837
vt 0.591463 0.376093
vt 0.591306 0.376093
vt 0.591306 0.363837
vt 0.602172 0.362917
vt 0.602172 0.362608
vt 0.594857 0.373151
vt 0.594857 0.373087
vt 0.602172 0.371997
vt 0.602172 0.371688
vt 0.595664 0.375366
vt 0.595664 0.360762
vt 0.697032 0.231997
vt 0.697032 0.231720
vt 0.697436 0.231720
vt 0.697436 0.231997
vt 0.602755 0.371497
vt 0.603179 0.371497
vt 0.783649 0.159459
vt 0.783649 0.142956
vt 0.783869 0.142956
vt 0.783869 0.159459
vt 0.607770 0.361989
vt 0.568641 0.361989
vt 0.595970 0.371328
vt 0.595502 0.371328
vt 0.783552 0.159274
vt 0.783552 0.142771
vt 0.783772 0.142771
vt 0.783772 0.159274
vt 0.607275 0.367992
vt 0.568146 0.367992
vt 0.603179 0.363108
vt 0.602755 0.363108
vt 0.697436 0.232063
vt 0.697032 0.232063
vt 0.686942 0.239897
vt 0.703545 0.240492
vt 0.703530 0.240896
vt 0.686928 0.240302
vt 0.595502 0.373048
vt 0.595970 0.373048
vt 0.692551 0.236529
vt 0.709164 0.236511
vt 0.709164 0.236916
vt 0.692551 0.236934
vt 0.684063 0.235838
vt 0.684063 0.235561
vt 0.684467 0.235561
vt 0.684467 0.235838
vt 0.704809 0.237516
vt 0.705014 0.237516
vt 0.705014 0.237550
vt 0.704809 0.237550
vt 0.708692 0.235934
vt 0.708692 0.235691
vt 0.709047 0.235691
vt 0.709047 0.235934
vt 0.704809 0.237376
vt 0.705014 0.237376
vt 0.699997 0.238003
vt 0.708437 0.238003
vt 0.708437 0.238208
vt 0.699997 0.238208
vt 0.699997 0.237797
vt 0.708437 0.237797
vt 0.672535 0.235891
vt 0.689148 0.235891
vt 0.689148 0.235957
vt 0.672535 0.235957
vt 0.685208 0.233892
vt 0.701821 0.233892
vt 0.701821 0.233958
vt 0.685208 0.233958
vt 0.684467 0.235904
vt 0.684063 0.235904
vt 0.709047 0.235992
vt 0.708692 0.235992
vt 0.685501 0.236215
vt 0.702114 0.236215
vt 0.702114 0.236282
vt 0.685501 0.236282
vt 0.685946 0.234033
vt 0.702559 0.234033
vt 0.702559 0.234099
vt 0.685946 0.234099
vt 0.603179 0.363370
vt 0.603179 0.371235
vt 0.602755 0.371235
vt 0.602755 0.363370
vt 0.568641 0.362391
vt 0.607770 0.362391
vt 0.607770 0.374487
vt 0.568641 0.374487
vt 0.595502 0.372994
vt 0.595502 0.371382
vt 0.595970 0.371382
vt 0.595970 0.372994
vt 0.789148 0.217346
vt 0.789148 0.059234
vt 0.967028 0.059234
vt 0.967028 0.217346
vt 0.685872 0.242519
vt 0.685946 0.242519
vt 0.685946 0.242683
vt 0.685872 0.242683
vt 0.685802 0.242333
vt 0.685876 0.242333
vt 0.685876 0.242415
vt 0.685802 0.242415
vt 0.685742 0.242427
vt 0.685815 0.242427
vt 0.685815 0.242592
vt 0.685742 0.242592
vt 0.685831 0.242315
vt 0.685905 0.242315
vt 0.685905 0.242397
vt 0.685831 0.242397
vt 0.685744 0.242274
vt 0.685826 0.242274
vt 0.685826 0.242439
vt 0.685744 0.242439
vt 0.685732 0.242277
vt 0.685814 0.242277
vt 0.685814 0.242442
vt 0.685732 0.242442
s 0
g road_I_1_roads_material
usemtl roads_material
f 1/1/1 2/2/1 4/3/1 3/4/1
f 3/5/2 4/6/2 19/7/2 16/8/2
f 7/9/3 8/10/3 6/11/3 5/12/3
f 23/13/4 28/14/4 2/15/4 1/16/4
f 2/15/4 28/14/4 30/17/4 13/18/4
f 26/19/4 27/20/4 33/21/4 9/22/4
f 15/23/2 20/24/2 8/25/2 7/26/2
f 11/27/5 35/28/5 33/29/5 10/30/5
f 5/31/4 6/32/4 27/20/4 24/33/4
f 3/34/6 16/35/6 23/36/6 1/37/6
f 8/25/2 20/24/2 35/38/2 11/39/2
f 4/3/1 2/2/1 13/40/1 12/41/1
f 17/42/6 22/43/6 23/36/6 16/35/6
f 15/44/6 24/45/6 25/46/6 14/47/6
f 26/19/4 25/48/4 24/33/4 27/20/4
f 28/14/4 23/13/4 22/49/4 29/50/4
f 18/51/2 17/52/2 16/8/2 19/7/2
f 20/24/2 15/23/2 14/53/2 21/54/2
f 15/44/6 7/55/6 5/56/6 24/45/6
f 34/57/5 12/58/5 13/59/5 30/60/5
f 28/14/4 29/50/4 31/61/4 30/17/4
f 20/24/2 21/54/2 36/62/2 35/38/2
f 29/63/3 18/64/3 32/65/3 31/66/3
f 19/7/2 4/6/2 12/67/2 34/68/2
f 6/11/3 8/10/3 11/69/3 10/70/3
f 18/51/2 19/7/2 34/68/2 32/71/2
f 27/20/4 6/32/4 10/72/4 33/21/4
f 21/73/1 26/74/1 9/75/1 36/76/1
f 34/77/1 30/78/1 42/79/1 41/80/1
f 35/38/2 36/62/2 44/81/2 43/82/2
f 39/83/5 40/84/5 43/85/5 44/86/5
f 37/87/5 38/88/5 41/85/5 42/84/5
f 31/66/3 32/65/3 38/89/3 37/90/3
f 33/91/3 35/92/3 43/93/3 40/94/3
f 30/17/4 31/61/4 37/95/4 42/96/4
f 32/71/2 34/68/2 41/97/2 38/98/2
f 9/22/4 33/21/4 40/99/4 39/100/4
f 36/76/1 9/75/1 39/101/1 44/102/1
f 45/103/2 47/104/2 55/105/2 57/106/2
f 25/48/4 26/19/4 50/107/4 51/108/4
f 45/109/5 50/110/5 26/111/5 21/112/5
f 17/42/6 48/113/6 52/114/6 22/43/6
f 47/115/2 45/116/2 21/54/2 14/53/2
f 18/117/5 29/118/5 49/119/5 46/120/5
f 47/121/6 14/47/6 25/46/6 51/122/6
f 52/123/4 49/124/4 29/50/4 22/49/4
f 45/103/2 57/106/2 68/125/2 62/126/2
f 47/127/6 51/128/6 54/129/6 55/130/6
f 17/52/2 18/51/2 46/131/2 48/132/2
f 56/133/6 53/134/6 52/135/6 48/136/6
f 58/137/2 56/138/2 48/139/2 46/140/2
f 59/141/4 50/142/4 61/143/4 67/144/4
f 49/145/4 52/146/4 53/147/4 60/148/4
f 50/142/4 59/141/4 54/149/4 51/150/4
f 61/151/5 62/152/5 68/153/5 67/154/5
f 66/155/5 65/156/5 63/152/5 64/151/5
f 57/157/1 59/158/1 67/159/1 68/160/1
f 50/161/3 45/162/3 62/163/3 61/164/3
f 58/137/2 46/140/2 63/165/2 65/166/2
f 49/145/4 60/148/4 66/167/4 64/168/4
f 46/169/1 49/170/1 64/171/1 63/172/1
f 60/173/3 58/174/3 65/175/3 66/176/3
f 53/177/4 54/178/4 59/179/4 60/180/4
f 53/181/6 56/182/6 55/183/6 54/184/6
f 58/185/2 57/186/2 55/187/2 56/188/2
f 58/189/5 60/190/5 59/191/5 57/192/5
f 69/193/1 70/194/1 72/195/1 71/196/1
f 71/197/2 72/198/2 76/199/2 75/200/2
f 75/201/3 76/202/3 74/203/3 73/204/3
f 73/205/4 74/206/4 70/207/4 69/208/4
f 71/209/6 75/210/6 73/211/6 69/212/6
f 76/213/5 72/214/5 70/215/5 74/216/5
f 77/193/1 78/194/1 80/195/1 79/196/1
f 79/197/2 80/198/2 84/199/2 83/200/2
f 83/201/3 84/202/3 82/203/3 81/204/3
f 81/205/4 82/206/4 78/207/4 77/208/4
f 79/209/6 83/210/6 81/211/6 77/212/6
f 84/213/5 80/214/5 78/215/5 82/216/5
f 85/193/1 86/194/1 88/195/1 87/196/1
f 87/197/2 88/198/2 92/199/2 91/200/2
f 91/201/3 92/202/3 90/203/3 89/204/3
f 89/205/4 90/206/4 86/207/4 85/208/4
f 87/209/6 91/210/6 89/211/6 85/212/6
f 92/213/5 88/214/5 86/215/5 90/216/5
f 93/193/1 94/194/1 96/195/1 95/196/1
f 95/197/2 96/198/2 100/199/2 99/200/2
f 99/201/3 100/202/3 98/203/3 97/204/3
f 97/205/4 98/206/4 94/207/4 93/208/4
f 95/209/6 99/210/6 97/211/6 93/212/6
f 100/213/5 96/214/5 94/215/5 98/216/5
